{
	"asset":{
		"generator":"Khronos glTF Blender I/O v4.0.44",
		"version":"2.0"
	},
	"extensionsUsed":[
		"KHR_materials_transmission",
		"KHR_materials_ior"
	],
	"scene":0,
	"scenes":[
		{
			"name":"Scene",
			"nodes":[
				0,
				1,
				2,
				3
			]
		}
	],
	"nodes":[
		{
			"mesh":0,
			"name":"Window"
		},
		{
			"mesh":1,
			"name":"Cockpit"
		},
		{
			"mesh":2,
			"name":"Dashboard",
			"translation":[
				2.5139074325561523,
				-0.36710408329963684,
				0.009550824761390686
			]
		},
		{
			"mesh":3,
			"name":"Navsphere",
			"translation":[
				1.5852875709533691,
				0.27314597368240356,
				0
			]
		}
	],
	"materials":[
		{
			"extensions":{
				"KHR_materials_transmission":{
					"transmissionFactor":1
				},
				"KHR_materials_ior":{
					"ior":1.4500000476837158
				}
			},
			"name":"Glass",
			"pbrMetallicRoughness":{
				"baseColorFactor":[
					0.800000011920929,
					0.800000011920929,
					0.800000011920929,
					1
				],
				"metallicFactor":0,
				"roughnessFactor":0.20984455943107605
			}
		},
		{
			"doubleSided":true,
			"name":"Cockpit",
			"pbrMetallicRoughness":{
				"baseColorFactor":[
					0.18382667005062103,
					0.18382667005062103,
					0.18382667005062103,
					1
				],
				"metallicFactor":0.6632124185562134,
				"roughnessFactor":0.44300517439842224
			}
		},
		{
			"doubleSided":true,
			"name":"Dashboard",
			"pbrMetallicRoughness":{
				"baseColorFactor":[
					0.049472253769636154,
					0.05197048932313919,
					0.059898167848587036,
					1
				],
				"metallicFactor":0.48636364936828613,
				"roughnessFactor":0.8066415786743164
			}
		},
		{
			"doubleSided":true,
			"emissiveFactor":[
				1,
				1,
				1
			],
			"name":"DashboardElements",
			"pbrMetallicRoughness":{
				"metallicFactor":0.48636364936828613,
				"roughnessFactor":0.8066415786743164
			}
		},
		{
			"emissiveFactor":[
				1,
				1,
				1
			],
			"extensions":{
				"KHR_materials_transmission":{
					"transmissionFactor":1
				},
				"KHR_materials_ior":{
					"ior":1.4500000476837158
				}
			},
			"name":"NavSphere",
			"pbrMetallicRoughness":{
				"metallicFactor":0.22727274894714355,
				"roughnessFactor":0.23181816935539246
			}
		}
	],
	"meshes":[
		{
			"name":"Cylinder",
			"primitives":[
				{
					"attributes":{
						"POSITION":0,
						"NORMAL":1,
						"TEXCOORD_0":2
					},
					"indices":3,
					"material":0
				}
			]
		},
		{
			"name":"Cylinder.003",
			"primitives":[
				{
					"attributes":{
						"POSITION":4,
						"NORMAL":5,
						"TEXCOORD_0":6
					},
					"indices":7,
					"material":1
				}
			]
		},
		{
			"name":"Cylinder.004",
			"primitives":[
				{
					"attributes":{
						"POSITION":8,
						"NORMAL":9,
						"TEXCOORD_0":10
					},
					"indices":11,
					"material":2
				},
				{
					"attributes":{
						"POSITION":12,
						"NORMAL":13,
						"TEXCOORD_0":14
					},
					"indices":15,
					"material":3
				}
			]
		},
		{
			"name":"Icosphere",
			"primitives":[
				{
					"attributes":{
						"POSITION":16,
						"NORMAL":17,
						"TEXCOORD_0":18
					},
					"indices":19,
					"material":4
				}
			]
		}
	],
	"accessors":[
		{
			"bufferView":0,
			"componentType":5126,
			"count":18,
			"max":[
				3.1658108234405518,
				1.3093760013580322,
				1
			],
			"min":[
				-1.615627646446228,
				-0.2247619777917862,
				-1
			],
			"type":"VEC3"
		},
		{
			"bufferView":1,
			"componentType":5126,
			"count":18,
			"type":"VEC3"
		},
		{
			"bufferView":2,
			"componentType":5126,
			"count":18,
			"type":"VEC2"
		},
		{
			"bufferView":3,
			"componentType":5123,
			"count":48,
			"type":"SCALAR"
		},
		{
			"bufferView":4,
			"componentType":5126,
			"count":273,
			"max":[
				4.0981974601745605,
				1.3610410690307617,
				1.110498309135437
			],
			"min":[
				-1.7520238161087036,
				-1.0136165618896484,
				-1.110498309135437
			],
			"type":"VEC3"
		},
		{
			"bufferView":5,
			"componentType":5126,
			"count":273,
			"type":"VEC3"
		},
		{
			"bufferView":6,
			"componentType":5126,
			"count":273,
			"type":"VEC2"
		},
		{
			"bufferView":7,
			"componentType":5123,
			"count":417,
			"type":"SCALAR"
		},
		{
			"bufferView":8,
			"componentType":5126,
			"count":584,
			"max":[
				0.9572800993919373,
				0.500796914100647,
				1.018402338027954
			],
			"min":[
				-2.482651948928833,
				-0.6285983324050903,
				-1.018402338027954
			],
			"type":"VEC3"
		},
		{
			"bufferView":9,
			"componentType":5126,
			"count":584,
			"type":"VEC3"
		},
		{
			"bufferView":10,
			"componentType":5126,
			"count":584,
			"type":"VEC2"
		},
		{
			"bufferView":11,
			"componentType":5123,
			"count":852,
			"type":"SCALAR"
		},
		{
			"bufferView":12,
			"componentType":5126,
			"count":48,
			"max":[
				-1.1526278257369995,
				0.33990806341171265,
				0.6415578126907349
			],
			"min":[
				-1.847374677658081,
				0.17203673720359802,
				-0.6415577530860901
			],
			"type":"VEC3"
		},
		{
			"bufferView":13,
			"componentType":5126,
			"count":48,
			"type":"VEC3"
		},
		{
			"bufferView":14,
			"componentType":5126,
			"count":48,
			"type":"VEC2"
		},
		{
			"bufferView":15,
			"componentType":5123,
			"count":72,
			"type":"SCALAR"
		},
		{
			"bufferView":16,
			"componentType":5126,
			"count":285,
			"max":[
				0.10893534123897552,
				0.10961493849754333,
				0.10870771110057831
			],
			"min":[
				-0.10893534123897552,
				-0.10961493849754333,
				-0.10870771110057831
			],
			"type":"VEC3"
		},
		{
			"bufferView":17,
			"componentType":5126,
			"count":285,
			"type":"VEC3"
		},
		{
			"bufferView":18,
			"componentType":5126,
			"count":285,
			"type":"VEC2"
		},
		{
			"bufferView":19,
			"componentType":5123,
			"count":1440,
			"type":"SCALAR"
		}
	],
	"bufferViews":[
		{
			"buffer":0,
			"byteLength":216,
			"byteOffset":0,
			"target":34962
		},
		{
			"buffer":0,
			"byteLength":216,
			"byteOffset":216,
			"target":34962
		},
		{
			"buffer":0,
			"byteLength":144,
			"byteOffset":432,
			"target":34962
		},
		{
			"buffer":0,
			"byteLength":96,
			"byteOffset":576,
			"target":34963
		},
		{
			"buffer":0,
			"byteLength":3276,
			"byteOffset":672,
			"target":34962
		},
		{
			"buffer":0,
			"byteLength":3276,
			"byteOffset":3948,
			"target":34962
		},
		{
			"buffer":0,
			"byteLength":2184,
			"byteOffset":7224,
			"target":34962
		},
		{
			"buffer":0,
			"byteLength":834,
			"byteOffset":9408,
			"target":34963
		},
		{
			"buffer":0,
			"byteLength":7008,
			"byteOffset":10244,
			"target":34962
		},
		{
			"buffer":0,
			"byteLength":7008,
			"byteOffset":17252,
			"target":34962
		},
		{
			"buffer":0,
			"byteLength":4672,
			"byteOffset":24260,
			"target":34962
		},
		{
			"buffer":0,
			"byteLength":1704,
			"byteOffset":28932,
			"target":34963
		},
		{
			"buffer":0,
			"byteLength":576,
			"byteOffset":30636,
			"target":34962
		},
		{
			"buffer":0,
			"byteLength":576,
			"byteOffset":31212,
			"target":34962
		},
		{
			"buffer":0,
			"byteLength":384,
			"byteOffset":31788,
			"target":34962
		},
		{
			"buffer":0,
			"byteLength":144,
			"byteOffset":32172,
			"target":34963
		},
		{
			"buffer":0,
			"byteLength":3420,
			"byteOffset":32316,
			"target":34962
		},
		{
			"buffer":0,
			"byteLength":3420,
			"byteOffset":35736,
			"target":34962
		},
		{
			"buffer":0,
			"byteLength":2280,
			"byteOffset":39156,
			"target":34962
		},
		{
			"buffer":0,
			"byteLength":2880,
			"byteOffset":41436,
			"target":34963
		}
	],
	"buffers":[
		{
			"byteLength":44316,
			"uri":"cockpit.bin"
		}
	]
}
