{
	"asset":{
		"generator":"Khronos glTF Blender I/O v4.0.44",
		"version":"2.0"
	},
	"scene":0,
	"scenes":[
		{
			"name":"Planet",
			"nodes":[
				0
			]
		}
	],
	"nodes":[
		{
			"mesh":0,
			"name":"Planet"
		}
	],
	"materials":[
		{
			"doubleSided":true,
			"name":"Planet.001",
			"normalTexture":{
				"index":0
			},
			"pbrMetallicRoughness":{
				"baseColorTexture":{
					"index":1
				},
				"metallicFactor":0,
				"metallicRoughnessTexture":{
					"index":2
				}
			}
		}
	],
	"meshes":[
		{
			"name":"Sphere",
			"primitives":[
				{
					"attributes":{
						"POSITION":0,
						"NORMAL":1,
						"TEXCOORD_0":2,
						"TANGENT":3
					},
					"indices":4,
					"material":0
				}
			]
		}
	],
	"textures":[
		{
			"sampler":0,
			"source":0
		},
		{
			"sampler":0,
			"source":1
		},
		{
			"sampler":0,
			"source":2
		}
	],
	"images":[
		{
			"mimeType":"image/png",
			"name":"Normal_Texture",
			"uri":"Normal_Texture.png"
		},
		{
			"mimeType":"image/png",
			"name":"BaseColor_Texture",
			"uri":"BaseColor_Texture.png"
		},
		{
			"mimeType":"image/png",
			"name":"Roughness_Texture",
			"uri":"Roughness_Texture.png"
		}
	],
	"accessors":[
		{
			"bufferView":0,
			"componentType":5126,
			"count":2141,
			"max":[
				0.9872310161590576,
				0.9975767135620117,
				0.9872307181358337
			],
			"min":[
				-0.9872305393218994,
				-0.9975767135620117,
				-0.9872310161590576
			],
			"type":"VEC3"
		},
		{
			"bufferView":1,
			"componentType":5126,
			"count":2141,
			"type":"VEC3"
		},
		{
			"bufferView":2,
			"componentType":5126,
			"count":2141,
			"type":"VEC2"
		},
		{
			"bufferView":3,
			"componentType":5126,
			"count":2141,
			"type":"VEC4"
		},
		{
			"bufferView":4,
			"componentType":5123,
			"count":11904,
			"type":"SCALAR"
		}
	],
	"bufferViews":[
		{
			"buffer":0,
			"byteLength":25692,
			"byteOffset":0,
			"target":34962
		},
		{
			"buffer":0,
			"byteLength":25692,
			"byteOffset":25692,
			"target":34962
		},
		{
			"buffer":0,
			"byteLength":17128,
			"byteOffset":51384,
			"target":34962
		},
		{
			"buffer":0,
			"byteLength":34256,
			"byteOffset":68512,
			"target":34962
		},
		{
			"buffer":0,
			"byteLength":23808,
			"byteOffset":102768,
			"target":34963
		}
	],
	"samplers":[
		{
			"magFilter":9729,
			"minFilter":9987
		}
	],
	"buffers":[
		{
			"byteLength":126576,
			"uri":"myplanet.bin"
		}
	]
}
